<mxfile host="app.diagrams.net" modified="2020-11-25T07:28:08.792Z" agent="5.0 (Macintosh)" etag="P_a51mPQTjdR_GvFHyOi" version="13.9.2" type="github" pages="3">
  <diagram id="Ry0N9wrN9H_V196sNAGs" name="Page-1">
    <mxGraphModel dx="2125" dy="871" grid="1" gridSize="10" guides="1" tooltips="1" connect="1" arrows="1" fold="1" page="1" pageScale="1" pageWidth="827" pageHeight="1169" math="0" shadow="0">
      <root>
        <mxCell id="0" />
        <mxCell id="1" parent="0" />
        <mxCell id="jM_NVDkqg-1iz5jcu-TQ-2" value="sap.lumira.geoviz" style="whiteSpace=wrap;html=1;dashed=1;strokeWidth=2;align=center;labelPosition=center;verticalLabelPosition=top;verticalAlign=bottom;fontSize=14;" parent="1" vertex="1">
          <mxGeometry x="-60" y="270" width="440" height="310" as="geometry" />
        </mxCell>
        <mxCell id="jM_NVDkqg-1iz5jcu-TQ-1" value="&lt;div style=&quot;font-size: 14px;&quot;&gt;GeoMapComponentLoader&lt;/div&gt;" style="rounded=1;whiteSpace=wrap;html=1;fontSize=14;" parent="1" vertex="1">
          <mxGeometry x="40" y="150" width="740" height="40" as="geometry" />
        </mxCell>
        <mxCell id="jM_NVDkqg-1iz5jcu-TQ-16" value="&lt;div&gt;sap.lumira.geoAmapViz&lt;/div&gt;" style="whiteSpace=wrap;html=1;dashed=1;strokeWidth=2;align=center;labelPosition=center;verticalLabelPosition=top;verticalAlign=bottom;fontSize=14;" parent="1" vertex="1">
          <mxGeometry x="420" y="270" width="440" height="310" as="geometry" />
        </mxCell>
        <mxCell id="jM_NVDkqg-1iz5jcu-TQ-17" value="" style="group" parent="1" vertex="1" connectable="0">
          <mxGeometry x="-40" y="370" width="400" height="190" as="geometry" />
        </mxCell>
        <mxCell id="jM_NVDkqg-1iz5jcu-TQ-13" value="" style="edgeStyle=orthogonalEdgeStyle;rounded=0;orthogonalLoop=1;jettySize=auto;html=1;fontSize=14;" parent="jM_NVDkqg-1iz5jcu-TQ-17" source="jM_NVDkqg-1iz5jcu-TQ-6" edge="1">
          <mxGeometry relative="1" as="geometry">
            <mxPoint x="200" y="22.799999999999997" as="targetPoint" />
          </mxGeometry>
        </mxCell>
        <mxCell id="jM_NVDkqg-1iz5jcu-TQ-14" value="" style="edgeStyle=orthogonalEdgeStyle;rounded=0;orthogonalLoop=1;jettySize=auto;html=1;fontSize=14;" parent="jM_NVDkqg-1iz5jcu-TQ-17" edge="1">
          <mxGeometry relative="1" as="geometry">
            <mxPoint x="150" y="60.419999999999995" as="sourcePoint" />
            <mxPoint x="200" y="60.419999999999995" as="targetPoint" />
          </mxGeometry>
        </mxCell>
        <mxCell id="jM_NVDkqg-1iz5jcu-TQ-15" value="" style="edgeStyle=orthogonalEdgeStyle;rounded=0;orthogonalLoop=1;jettySize=auto;html=1;fontSize=14;exitX=1;exitY=0.5;exitDx=0;exitDy=0;" parent="jM_NVDkqg-1iz5jcu-TQ-17" source="jM_NVDkqg-1iz5jcu-TQ-8" edge="1">
          <mxGeometry relative="1" as="geometry">
            <mxPoint x="170" y="38" as="sourcePoint" />
            <mxPoint x="199" y="98.8" as="targetPoint" />
          </mxGeometry>
        </mxCell>
        <mxCell id="jM_NVDkqg-1iz5jcu-TQ-6" value="CircleLayer" style="rounded=0;whiteSpace=wrap;html=1;strokeWidth=1;fontSize=14;align=center;" parent="jM_NVDkqg-1iz5jcu-TQ-17" vertex="1">
          <mxGeometry y="7.6" width="150" height="30.4" as="geometry" />
        </mxCell>
        <mxCell id="jM_NVDkqg-1iz5jcu-TQ-7" value="LabelLayer" style="rounded=0;whiteSpace=wrap;html=1;strokeWidth=1;fontSize=14;align=center;" parent="jM_NVDkqg-1iz5jcu-TQ-17" vertex="1">
          <mxGeometry y="45.599999999999994" width="150" height="30.4" as="geometry" />
        </mxCell>
        <mxCell id="jM_NVDkqg-1iz5jcu-TQ-8" value="ClusterGraphicsLayer" style="rounded=0;whiteSpace=wrap;html=1;strokeWidth=1;fontSize=14;align=center;" parent="jM_NVDkqg-1iz5jcu-TQ-17" vertex="1">
          <mxGeometry y="83.6" width="150" height="30.4" as="geometry" />
        </mxCell>
        <mxCell id="jM_NVDkqg-1iz5jcu-TQ-5" value="" style="group;fillColor=#ffe6cc;strokeColor=#d79b00;" parent="jM_NVDkqg-1iz5jcu-TQ-17" vertex="1" connectable="0">
          <mxGeometry x="200" width="200" height="190" as="geometry" />
        </mxCell>
        <mxCell id="jM_NVDkqg-1iz5jcu-TQ-3" value="Map" style="rounded=0;whiteSpace=wrap;html=1;strokeWidth=1;fontSize=14;align=center;labelPosition=center;verticalLabelPosition=top;verticalAlign=bottom;fillColor=#ffe6cc;strokeColor=#d79b00;" parent="jM_NVDkqg-1iz5jcu-TQ-5" vertex="1">
          <mxGeometry width="200" height="190.00000000000003" as="geometry" />
        </mxCell>
        <mxCell id="jM_NVDkqg-1iz5jcu-TQ-4" value="ESRIMap" style="rounded=1;whiteSpace=wrap;html=1;strokeWidth=1;fontSize=14;align=center;fillColor=#d5e8d4;strokeColor=#82b366;" parent="jM_NVDkqg-1iz5jcu-TQ-5" vertex="1">
          <mxGeometry x="40" y="106.39999999999999" width="120" height="66.3252" as="geometry" />
        </mxCell>
        <mxCell id="jM_NVDkqg-1iz5jcu-TQ-18" value="" style="group" parent="1" vertex="1" connectable="0">
          <mxGeometry x="440" y="370" width="400" height="190" as="geometry" />
        </mxCell>
        <mxCell id="jM_NVDkqg-1iz5jcu-TQ-19" value="" style="group" parent="jM_NVDkqg-1iz5jcu-TQ-18" vertex="1" connectable="0">
          <mxGeometry x="200" width="200" height="190" as="geometry" />
        </mxCell>
        <mxCell id="jM_NVDkqg-1iz5jcu-TQ-20" value="Map" style="rounded=0;whiteSpace=wrap;html=1;strokeWidth=1;fontSize=14;align=center;labelPosition=center;verticalLabelPosition=top;verticalAlign=bottom;fillColor=#ffe6cc;strokeColor=#d79b00;" parent="jM_NVDkqg-1iz5jcu-TQ-19" vertex="1">
          <mxGeometry width="200" height="190.00000000000003" as="geometry" />
        </mxCell>
        <mxCell id="jM_NVDkqg-1iz5jcu-TQ-21" value="&lt;div&gt;AMap&lt;/div&gt;" style="rounded=1;whiteSpace=wrap;html=1;strokeWidth=1;fontSize=14;align=center;fillColor=#dae8fc;strokeColor=#6c8ebf;" parent="jM_NVDkqg-1iz5jcu-TQ-19" vertex="1">
          <mxGeometry x="40" y="106.39999999999999" width="120" height="66.3252" as="geometry" />
        </mxCell>
        <mxCell id="jM_NVDkqg-1iz5jcu-TQ-22" value="" style="edgeStyle=orthogonalEdgeStyle;rounded=0;orthogonalLoop=1;jettySize=auto;html=1;fontSize=14;" parent="jM_NVDkqg-1iz5jcu-TQ-18" source="jM_NVDkqg-1iz5jcu-TQ-23" edge="1">
          <mxGeometry relative="1" as="geometry">
            <mxPoint x="200" y="22.799999999999997" as="targetPoint" />
          </mxGeometry>
        </mxCell>
        <mxCell id="jM_NVDkqg-1iz5jcu-TQ-23" value="AMapCircleLayer" style="rounded=0;whiteSpace=wrap;html=1;strokeWidth=1;fontSize=14;align=center;" parent="jM_NVDkqg-1iz5jcu-TQ-18" vertex="1">
          <mxGeometry y="7.6" width="150" height="30.4" as="geometry" />
        </mxCell>
        <mxCell id="jM_NVDkqg-1iz5jcu-TQ-24" value="AMapLabelLayer" style="rounded=0;whiteSpace=wrap;html=1;strokeWidth=1;fontSize=14;align=center;" parent="jM_NVDkqg-1iz5jcu-TQ-18" vertex="1">
          <mxGeometry y="45.599999999999994" width="150" height="30.4" as="geometry" />
        </mxCell>
        <mxCell id="jM_NVDkqg-1iz5jcu-TQ-25" value="AMapClusterGraphicsLayer" style="rounded=0;whiteSpace=wrap;html=1;strokeWidth=1;fontSize=14;align=center;" parent="jM_NVDkqg-1iz5jcu-TQ-18" vertex="1">
          <mxGeometry y="83.6" width="150" height="30.4" as="geometry" />
        </mxCell>
        <mxCell id="jM_NVDkqg-1iz5jcu-TQ-26" value="" style="edgeStyle=orthogonalEdgeStyle;rounded=0;orthogonalLoop=1;jettySize=auto;html=1;fontSize=14;" parent="jM_NVDkqg-1iz5jcu-TQ-18" edge="1">
          <mxGeometry relative="1" as="geometry">
            <mxPoint x="150" y="60.42" as="sourcePoint" />
            <mxPoint x="200" y="60.42" as="targetPoint" />
          </mxGeometry>
        </mxCell>
        <mxCell id="jM_NVDkqg-1iz5jcu-TQ-27" value="" style="edgeStyle=orthogonalEdgeStyle;rounded=0;orthogonalLoop=1;jettySize=auto;html=1;fontSize=14;exitX=1;exitY=0.5;exitDx=0;exitDy=0;" parent="jM_NVDkqg-1iz5jcu-TQ-18" source="jM_NVDkqg-1iz5jcu-TQ-25" edge="1">
          <mxGeometry relative="1" as="geometry">
            <mxPoint x="170" y="38" as="sourcePoint" />
            <mxPoint x="199" y="98.8" as="targetPoint" />
          </mxGeometry>
        </mxCell>
        <mxCell id="jM_NVDkqg-1iz5jcu-TQ-28" value="MapVizController" style="rounded=0;whiteSpace=wrap;html=1;strokeWidth=1;fontSize=14;align=center;" parent="1" vertex="1">
          <mxGeometry x="160" y="300" width="200" height="40" as="geometry" />
        </mxCell>
        <mxCell id="jM_NVDkqg-1iz5jcu-TQ-29" value="LayerVizController" style="rounded=0;whiteSpace=wrap;html=1;strokeWidth=1;fontSize=14;align=center;" parent="1" vertex="1">
          <mxGeometry x="-40" y="300" width="150" height="40" as="geometry" />
        </mxCell>
        <mxCell id="jM_NVDkqg-1iz5jcu-TQ-31" value="" style="endArrow=classic;html=1;fontSize=14;" parent="1" target="jM_NVDkqg-1iz5jcu-TQ-28" edge="1">
          <mxGeometry width="50" height="50" relative="1" as="geometry">
            <mxPoint x="260" y="190" as="sourcePoint" />
            <mxPoint x="439" y="210" as="targetPoint" />
          </mxGeometry>
        </mxCell>
        <mxCell id="jM_NVDkqg-1iz5jcu-TQ-32" value="" style="endArrow=classic;html=1;fontSize=14;entryX=0.455;entryY=0.025;entryDx=0;entryDy=0;entryPerimeter=0;" parent="1" target="jM_NVDkqg-1iz5jcu-TQ-33" edge="1">
          <mxGeometry width="50" height="50" relative="1" as="geometry">
            <mxPoint x="730" y="190" as="sourcePoint" />
            <mxPoint x="730" y="296" as="targetPoint" />
          </mxGeometry>
        </mxCell>
        <mxCell id="jM_NVDkqg-1iz5jcu-TQ-33" value="AMapMapVizController" style="rounded=0;whiteSpace=wrap;html=1;strokeWidth=1;fontSize=14;align=center;" parent="1" vertex="1">
          <mxGeometry x="640" y="300" width="200" height="40" as="geometry" />
        </mxCell>
        <mxCell id="jM_NVDkqg-1iz5jcu-TQ-34" value="AMapLayerVizController" style="rounded=0;whiteSpace=wrap;html=1;strokeWidth=1;fontSize=14;align=center;" parent="1" vertex="1">
          <mxGeometry x="440" y="300" width="150" height="40" as="geometry" />
        </mxCell>
        <mxCell id="jM_NVDkqg-1iz5jcu-TQ-35" value="GeometryHelper" style="rounded=1;whiteSpace=wrap;html=1;strokeWidth=1;fontSize=14;align=center;fillColor=#d5e8d4;strokeColor=#82b366;" parent="1" vertex="1">
          <mxGeometry x="-40" y="510" width="150" height="50" as="geometry" />
        </mxCell>
        <mxCell id="jM_NVDkqg-1iz5jcu-TQ-41" value="AMapGeometryHelper" style="rounded=1;whiteSpace=wrap;html=1;strokeWidth=1;fontSize=14;align=center;fillColor=#dae8fc;strokeColor=#6c8ebf;" parent="1" vertex="1">
          <mxGeometry x="440" y="510" width="150" height="50" as="geometry" />
        </mxCell>
      </root>
    </mxGraphModel>
  </diagram>
  <diagram id="WrDaSilB8RUI-987ZBwu" name="Page-2">
    <mxGraphModel dx="1298" dy="871" grid="1" gridSize="10" guides="1" tooltips="1" connect="1" arrows="1" fold="1" page="1" pageScale="1" pageWidth="827" pageHeight="1169" math="0" shadow="0">
      <root>
        <mxCell id="US9huMjpRJ0ZdlY7kJb_-0" />
        <mxCell id="US9huMjpRJ0ZdlY7kJb_-1" parent="US9huMjpRJ0ZdlY7kJb_-0" />
        <mxCell id="96huQ-KlkCKLoIx3p-F8-30" value="" style="group" vertex="1" connectable="0" parent="US9huMjpRJ0ZdlY7kJb_-1">
          <mxGeometry x="880" y="60" width="560" height="450" as="geometry" />
        </mxCell>
        <mxCell id="96huQ-KlkCKLoIx3p-F8-32" value="" style="rounded=1;whiteSpace=wrap;html=1;strokeWidth=3;fontSize=14;align=center;dashed=1;dashPattern=1 1;fillColor=#b0e3e6;strokeColor=#0e8088;" vertex="1" parent="96huQ-KlkCKLoIx3p-F8-30">
          <mxGeometry x="-40" y="-30" width="590" height="480" as="geometry" />
        </mxCell>
        <mxCell id="96huQ-KlkCKLoIx3p-F8-29" value="Map" style="rounded=0;whiteSpace=wrap;html=1;strokeWidth=1;fontSize=14;align=center;rotation=90;fillColor=#ffe6cc;strokeColor=#d79b00;" vertex="1" parent="96huQ-KlkCKLoIx3p-F8-30">
          <mxGeometry x="250" y="185" width="430" height="60" as="geometry" />
        </mxCell>
        <mxCell id="96huQ-KlkCKLoIx3p-F8-27" value="" style="group" vertex="1" connectable="0" parent="96huQ-KlkCKLoIx3p-F8-30">
          <mxGeometry y="165" width="450" height="250" as="geometry" />
        </mxCell>
        <mxCell id="96huQ-KlkCKLoIx3p-F8-18" value="AMapAdapter" style="rounded=0;whiteSpace=wrap;html=1;strokeWidth=1;fontSize=14;align=center;labelPosition=center;verticalLabelPosition=top;verticalAlign=bottom;fillColor=#dae8fc;strokeColor=#6c8ebf;" vertex="1" parent="96huQ-KlkCKLoIx3p-F8-27">
          <mxGeometry width="390" height="250" as="geometry" />
        </mxCell>
        <mxCell id="96huQ-KlkCKLoIx3p-F8-19" value="emit(type, event)" style="shape=singleArrow;whiteSpace=wrap;html=1;strokeWidth=1;fontSize=14;align=center;fillColor=#d5e8d4;strokeColor=#82b366;" vertex="1" parent="96huQ-KlkCKLoIx3p-F8-27">
          <mxGeometry x="290" y="130" width="160" height="60" as="geometry" />
        </mxCell>
        <mxCell id="96huQ-KlkCKLoIx3p-F8-20" value="addLayer(esriLayer)" style="shape=singleArrow;direction=west;whiteSpace=wrap;html=1;strokeWidth=1;fontSize=14;align=center;fillColor=#d5e8d4;strokeColor=#82b366;" vertex="1" parent="96huQ-KlkCKLoIx3p-F8-27">
          <mxGeometry x="290" y="40" width="160" height="60" as="geometry" />
        </mxCell>
        <mxCell id="96huQ-KlkCKLoIx3p-F8-21" value="AMap" style="rounded=0;whiteSpace=wrap;html=1;strokeWidth=1;fontSize=14;align=center;fillColor=#1ba1e2;strokeColor=#006EAF;fontColor=#ffffff;" vertex="1" parent="96huQ-KlkCKLoIx3p-F8-27">
          <mxGeometry x="30" y="30" width="120" height="180" as="geometry" />
        </mxCell>
        <mxCell id="96huQ-KlkCKLoIx3p-F8-23" value="Adapter Logics" style="rounded=1;whiteSpace=wrap;html=1;strokeWidth=1;fontSize=14;align=center;horizontal=1;fillColor=#008a00;strokeColor=#005700;fontColor=#ffffff;rotation=90;" vertex="1" parent="96huQ-KlkCKLoIx3p-F8-27">
          <mxGeometry x="185" y="95" width="170" height="40" as="geometry" />
        </mxCell>
        <mxCell id="96huQ-KlkCKLoIx3p-F8-24" value="add(amapLayer)" style="shape=singleArrow;direction=west;whiteSpace=wrap;html=1;strokeWidth=1;fontSize=14;align=center;fillColor=#1ba1e2;strokeColor=#006EAF;fontColor=#ffffff;" vertex="1" parent="96huQ-KlkCKLoIx3p-F8-27">
          <mxGeometry x="90" y="40" width="160" height="60" as="geometry" />
        </mxCell>
        <mxCell id="96huQ-KlkCKLoIx3p-F8-25" value="emit(type, event)" style="shape=singleArrow;whiteSpace=wrap;html=1;strokeWidth=1;fontSize=14;align=center;fillColor=#1ba1e2;strokeColor=#006EAF;fontColor=#ffffff;" vertex="1" parent="96huQ-KlkCKLoIx3p-F8-27">
          <mxGeometry x="90" y="130" width="160" height="60" as="geometry" />
        </mxCell>
        <mxCell id="96huQ-KlkCKLoIx3p-F8-28" value="" style="group" vertex="1" connectable="0" parent="96huQ-KlkCKLoIx3p-F8-30">
          <mxGeometry x="250" y="5" width="210" height="130" as="geometry" />
        </mxCell>
        <mxCell id="96huQ-KlkCKLoIx3p-F8-15" value="ESRIMap" style="rounded=0;whiteSpace=wrap;html=1;strokeWidth=1;fontSize=14;align=center;fillColor=#d5e8d4;strokeColor=#82b366;" vertex="1" parent="96huQ-KlkCKLoIx3p-F8-28">
          <mxGeometry width="120" height="130" as="geometry" />
        </mxCell>
        <mxCell id="96huQ-KlkCKLoIx3p-F8-16" value="emit(type, event)" style="shape=singleArrow;whiteSpace=wrap;html=1;strokeWidth=1;fontSize=14;align=center;fillColor=#d5e8d4;strokeColor=#82b366;" vertex="1" parent="96huQ-KlkCKLoIx3p-F8-28">
          <mxGeometry x="90" y="70" width="120" height="60" as="geometry" />
        </mxCell>
        <mxCell id="96huQ-KlkCKLoIx3p-F8-17" value="addLayer(esriLayer)" style="shape=singleArrow;direction=west;whiteSpace=wrap;html=1;strokeWidth=1;fontSize=14;align=center;fillColor=#d5e8d4;strokeColor=#82b366;" vertex="1" parent="96huQ-KlkCKLoIx3p-F8-28">
          <mxGeometry x="90" y="10" width="120" height="60" as="geometry" />
        </mxCell>
        <mxCell id="96huQ-KlkCKLoIx3p-F8-37" value="" style="group" vertex="1" connectable="0" parent="US9huMjpRJ0ZdlY7kJb_-1">
          <mxGeometry x="120" y="20" width="640" height="510" as="geometry" />
        </mxCell>
        <mxCell id="96huQ-KlkCKLoIx3p-F8-0" value="&lt;div style=&quot;font-size: 14px;&quot;&gt;GeoMapComponentLoader&lt;/div&gt;" style="rounded=1;whiteSpace=wrap;html=1;fontSize=14;" vertex="1" parent="96huQ-KlkCKLoIx3p-F8-37">
          <mxGeometry width="640" height="56.66666666666666" as="geometry" />
        </mxCell>
        <mxCell id="96huQ-KlkCKLoIx3p-F8-1" value="" style="rounded=0;whiteSpace=wrap;html=1;strokeWidth=2;fontSize=14;align=center;dashed=1;" vertex="1" parent="96huQ-KlkCKLoIx3p-F8-37">
          <mxGeometry y="99.16666666666664" width="640" height="410.8333333333333" as="geometry" />
        </mxCell>
        <mxCell id="96huQ-KlkCKLoIx3p-F8-3" value="MapVizController" style="rounded=0;whiteSpace=wrap;html=1;strokeWidth=1;fontSize=14;align=center;" vertex="1" parent="96huQ-KlkCKLoIx3p-F8-37">
          <mxGeometry x="287.3469387755102" y="127.49999999999999" width="313.469387755102" height="56.66666666666666" as="geometry" />
        </mxCell>
        <mxCell id="96huQ-KlkCKLoIx3p-F8-4" value="LayerVizController" style="rounded=0;whiteSpace=wrap;html=1;strokeWidth=1;fontSize=14;align=center;" vertex="1" parent="96huQ-KlkCKLoIx3p-F8-37">
          <mxGeometry x="39.18367346938775" y="127.49999999999999" width="208.97959183673464" height="56.66666666666666" as="geometry" />
        </mxCell>
        <mxCell id="96huQ-KlkCKLoIx3p-F8-5" value="CircleLayer" style="rounded=0;whiteSpace=wrap;html=1;strokeWidth=1;fontSize=14;align=center;" vertex="1" parent="96huQ-KlkCKLoIx3p-F8-37">
          <mxGeometry x="39.18367346938775" y="226.66666666666663" width="208.97959183673464" height="56.66666666666666" as="geometry" />
        </mxCell>
        <mxCell id="96huQ-KlkCKLoIx3p-F8-6" value="LabelLayer" style="rounded=0;whiteSpace=wrap;html=1;strokeWidth=1;fontSize=14;align=center;" vertex="1" parent="96huQ-KlkCKLoIx3p-F8-37">
          <mxGeometry x="39.18367346938775" y="311.66666666666663" width="208.97959183673464" height="56.66666666666666" as="geometry" />
        </mxCell>
        <mxCell id="96huQ-KlkCKLoIx3p-F8-7" value="ClusterGroupLayer" style="rounded=0;whiteSpace=wrap;html=1;strokeWidth=1;fontSize=14;align=center;" vertex="1" parent="96huQ-KlkCKLoIx3p-F8-37">
          <mxGeometry x="39.18367346938775" y="396.6666666666666" width="208.97959183673464" height="56.66666666666666" as="geometry" />
        </mxCell>
        <mxCell id="96huQ-KlkCKLoIx3p-F8-14" value="" style="endArrow=classic;html=1;fontSize=14;exitX=0.694;exitY=1;exitDx=0;exitDy=0;exitPerimeter=0;" edge="1" parent="96huQ-KlkCKLoIx3p-F8-37" source="96huQ-KlkCKLoIx3p-F8-0">
          <mxGeometry width="50" height="50" relative="1" as="geometry">
            <mxPoint x="626.938775510204" y="538.3333333333333" as="sourcePoint" />
            <mxPoint x="444.0816326530612" y="127.49999999999999" as="targetPoint" />
          </mxGeometry>
        </mxCell>
        <mxCell id="96huQ-KlkCKLoIx3p-F8-36" value="" style="rounded=1;whiteSpace=wrap;html=1;strokeWidth=3;fillColor=#b0e3e6;fontSize=14;align=center;strokeColor=#0e8088;dashed=1;dashPattern=1 1;" vertex="1" parent="96huQ-KlkCKLoIx3p-F8-37">
          <mxGeometry x="261.2244897959183" y="198.3333333333333" width="365.71428571428567" height="297.5" as="geometry" />
        </mxCell>
        <mxCell id="96huQ-KlkCKLoIx3p-F8-8" value="Map" style="rounded=0;whiteSpace=wrap;html=1;strokeWidth=1;fontSize=14;align=center;labelPosition=center;verticalLabelPosition=top;verticalAlign=bottom;fillColor=#ffe6cc;strokeColor=#d79b00;" vertex="1" parent="96huQ-KlkCKLoIx3p-F8-37">
          <mxGeometry x="287.3469387755102" y="226.66666666666663" width="313.469387755102" height="254.99999999999997" as="geometry" />
        </mxCell>
        <mxCell id="96huQ-KlkCKLoIx3p-F8-33" value="ESRIMap" style="rounded=0;whiteSpace=wrap;html=1;strokeWidth=1;fontSize=14;align=center;fillColor=#d5e8d4;strokeColor=#82b366;" vertex="1" parent="96huQ-KlkCKLoIx3p-F8-37">
          <mxGeometry x="313.469387755102" y="325.83333333333337" width="130.61224489795916" height="127.49999999999999" as="geometry" />
        </mxCell>
        <mxCell id="96huQ-KlkCKLoIx3p-F8-34" value="AMapAdapter" style="rounded=0;whiteSpace=wrap;html=1;strokeWidth=1;fontSize=14;align=center;fillColor=#dae8fc;strokeColor=#6c8ebf;" vertex="1" parent="96huQ-KlkCKLoIx3p-F8-37">
          <mxGeometry x="444.0816326530612" y="325.83333333333337" width="130.61224489795916" height="127.49999999999999" as="geometry" />
        </mxCell>
      </root>
    </mxGraphModel>
  </diagram>
  <diagram id="nHofOm0f6WpG6UXewuUj" name="Page-3">
    <mxGraphModel dx="1298" dy="871" grid="1" gridSize="10" guides="1" tooltips="1" connect="1" arrows="1" fold="1" page="1" pageScale="1" pageWidth="827" pageHeight="1169" math="0" shadow="0">
      <root>
        <mxCell id="tBojfq1C8Jnn5UzT84Zx-0" />
        <mxCell id="tBojfq1C8Jnn5UzT84Zx-1" parent="tBojfq1C8Jnn5UzT84Zx-0" />
        <mxCell id="tBojfq1C8Jnn5UzT84Zx-52" value="mapviz" style="rounded=0;whiteSpace=wrap;html=1;fillColor=#d5e8d4;strokeColor=#82b366;verticalAlign=top;dashed=1;strokeWidth=2;align=left;" vertex="1" parent="tBojfq1C8Jnn5UzT84Zx-1">
          <mxGeometry x="40" y="700" width="400" height="120" as="geometry" />
        </mxCell>
        <mxCell id="tBojfq1C8Jnn5UzT84Zx-13" value="mapviz" style="rounded=0;whiteSpace=wrap;html=1;fillColor=#d5e8d4;strokeColor=#82b366;verticalAlign=top;dashed=1;strokeWidth=2;align=left;" vertex="1" parent="tBojfq1C8Jnn5UzT84Zx-1">
          <mxGeometry x="40" y="360" width="400" height="120" as="geometry" />
        </mxCell>
        <mxCell id="tBojfq1C8Jnn5UzT84Zx-2" value="&lt;div&gt;GeoViz&lt;/div&gt;&lt;div&gt;(Map, CircleLayer, etc)&lt;br&gt;&lt;/div&gt;" style="rounded=1;whiteSpace=wrap;html=1;fillColor=#ffe6cc;strokeColor=#d79b00;" vertex="1" parent="tBojfq1C8Jnn5UzT84Zx-1">
          <mxGeometry x="120" y="80" width="240" height="40" as="geometry" />
        </mxCell>
        <mxCell id="tBojfq1C8Jnn5UzT84Zx-8" value="esri" style="rounded=0;whiteSpace=wrap;html=1;fillColor=#dae8fc;strokeColor=#6c8ebf;" vertex="1" parent="tBojfq1C8Jnn5UzT84Zx-1">
          <mxGeometry x="160" y="160" width="160" height="40" as="geometry" />
        </mxCell>
        <mxCell id="tBojfq1C8Jnn5UzT84Zx-12" value="&lt;div&gt;GeoViz&lt;/div&gt;&lt;div&gt;(Map, CircleLayer, etc)&lt;br&gt;&lt;/div&gt;" style="rounded=1;whiteSpace=wrap;html=1;fillColor=#ffe6cc;strokeColor=#d79b00;" vertex="1" parent="tBojfq1C8Jnn5UzT84Zx-1">
          <mxGeometry x="120" y="280" width="240" height="40" as="geometry" />
        </mxCell>
        <mxCell id="tBojfq1C8Jnn5UzT84Zx-29" value="esri" style="rounded=1;whiteSpace=wrap;html=1;fillColor=#dae8fc;strokeColor=#6c8ebf;" vertex="1" parent="tBojfq1C8Jnn5UzT84Zx-1">
          <mxGeometry x="120" y="400" width="240" height="40" as="geometry" />
        </mxCell>
        <mxCell id="tBojfq1C8Jnn5UzT84Zx-30" value="Geo Implementation" style="rounded=1;whiteSpace=wrap;html=1;fillColor=#1ba1e2;strokeColor=#006EAF;fontColor=#ffffff;" vertex="1" parent="tBojfq1C8Jnn5UzT84Zx-1">
          <mxGeometry x="120" y="740" width="230" height="40" as="geometry" />
        </mxCell>
        <mxCell id="tBojfq1C8Jnn5UzT84Zx-39" value="" style="shape=flexArrow;endArrow=classic;html=1;exitX=0.25;exitY=1;exitDx=0;exitDy=0;endWidth=12;endSize=5;fillColor=#0050ef;strokeColor=#001DBC;" edge="1" parent="tBojfq1C8Jnn5UzT84Zx-1" source="tBojfq1C8Jnn5UzT84Zx-2">
          <mxGeometry width="50" height="50" relative="1" as="geometry">
            <mxPoint x="120" y="610" as="sourcePoint" />
            <mxPoint x="180" y="160" as="targetPoint" />
          </mxGeometry>
        </mxCell>
        <mxCell id="tBojfq1C8Jnn5UzT84Zx-42" value="" style="shape=flexArrow;endArrow=classic;html=1;exitX=0.25;exitY=1;exitDx=0;exitDy=0;endWidth=12;endSize=5;fillColor=#0050ef;strokeColor=#001DBC;" edge="1" parent="tBojfq1C8Jnn5UzT84Zx-1">
          <mxGeometry width="50" height="50" relative="1" as="geometry">
            <mxPoint x="239.5" y="120" as="sourcePoint" />
            <mxPoint x="239.5" y="160" as="targetPoint" />
          </mxGeometry>
        </mxCell>
        <mxCell id="tBojfq1C8Jnn5UzT84Zx-43" value="" style="shape=flexArrow;endArrow=classic;html=1;exitX=0.25;exitY=1;exitDx=0;exitDy=0;endWidth=12;endSize=5;fillColor=#0050ef;strokeColor=#001DBC;" edge="1" parent="tBojfq1C8Jnn5UzT84Zx-1">
          <mxGeometry width="50" height="50" relative="1" as="geometry">
            <mxPoint x="300" y="120" as="sourcePoint" />
            <mxPoint x="300" y="160" as="targetPoint" />
          </mxGeometry>
        </mxCell>
        <mxCell id="tBojfq1C8Jnn5UzT84Zx-44" value="" style="shape=flexArrow;endArrow=classic;html=1;exitX=0.25;exitY=1;exitDx=0;exitDy=0;endWidth=12;endSize=5;entryX=0.167;entryY=0;entryDx=0;entryDy=0;entryPerimeter=0;fillColor=#0050ef;strokeColor=#001DBC;" edge="1" parent="tBojfq1C8Jnn5UzT84Zx-1" target="tBojfq1C8Jnn5UzT84Zx-29">
          <mxGeometry width="50" height="50" relative="1" as="geometry">
            <mxPoint x="160" y="320" as="sourcePoint" />
            <mxPoint x="160" y="360" as="targetPoint" />
          </mxGeometry>
        </mxCell>
        <mxCell id="tBojfq1C8Jnn5UzT84Zx-50" value="" style="shape=flexArrow;endArrow=classic;html=1;exitX=0.25;exitY=1;exitDx=0;exitDy=0;endWidth=12;endSize=5;entryX=0.167;entryY=0;entryDx=0;entryDy=0;entryPerimeter=0;fillColor=#0050ef;strokeColor=#001DBC;" edge="1" parent="tBojfq1C8Jnn5UzT84Zx-1">
          <mxGeometry width="50" height="50" relative="1" as="geometry">
            <mxPoint x="239.5" y="320" as="sourcePoint" />
            <mxPoint x="239.57999999999993" y="400" as="targetPoint" />
          </mxGeometry>
        </mxCell>
        <mxCell id="tBojfq1C8Jnn5UzT84Zx-51" value="" style="shape=flexArrow;endArrow=classic;html=1;exitX=0.25;exitY=1;exitDx=0;exitDy=0;endWidth=12;endSize=5;entryX=0.167;entryY=0;entryDx=0;entryDy=0;entryPerimeter=0;fillColor=#0050ef;strokeColor=#001DBC;" edge="1" parent="tBojfq1C8Jnn5UzT84Zx-1">
          <mxGeometry width="50" height="50" relative="1" as="geometry">
            <mxPoint x="319.5" y="320" as="sourcePoint" />
            <mxPoint x="319.5799999999999" y="400" as="targetPoint" />
          </mxGeometry>
        </mxCell>
        <mxCell id="tBojfq1C8Jnn5UzT84Zx-53" value="&lt;div&gt;GeoViz&lt;/div&gt;&lt;div&gt;(Map, CircleLayer, etc)&lt;br&gt;&lt;/div&gt;" style="rounded=1;whiteSpace=wrap;html=1;fillColor=#ffe6cc;strokeColor=#d79b00;" vertex="1" parent="tBojfq1C8Jnn5UzT84Zx-1">
          <mxGeometry x="120" y="620" width="240" height="40" as="geometry" />
        </mxCell>
        <mxCell id="tBojfq1C8Jnn5UzT84Zx-55" value="" style="shape=flexArrow;endArrow=classic;html=1;exitX=0.25;exitY=1;exitDx=0;exitDy=0;endWidth=12;endSize=5;entryX=0.167;entryY=0;entryDx=0;entryDy=0;entryPerimeter=0;fillColor=#0050ef;strokeColor=#001DBC;" edge="1" parent="tBojfq1C8Jnn5UzT84Zx-1">
          <mxGeometry width="50" height="50" relative="1" as="geometry">
            <mxPoint x="160" y="660" as="sourcePoint" />
            <mxPoint x="160.07999999999993" y="740" as="targetPoint" />
          </mxGeometry>
        </mxCell>
        <mxCell id="tBojfq1C8Jnn5UzT84Zx-56" value="" style="shape=flexArrow;endArrow=classic;html=1;exitX=0.25;exitY=1;exitDx=0;exitDy=0;endWidth=12;endSize=5;entryX=0.167;entryY=0;entryDx=0;entryDy=0;entryPerimeter=0;fillColor=#0050ef;strokeColor=#001DBC;" edge="1" parent="tBojfq1C8Jnn5UzT84Zx-1">
          <mxGeometry width="50" height="50" relative="1" as="geometry">
            <mxPoint x="239.5" y="660" as="sourcePoint" />
            <mxPoint x="239.57999999999993" y="740" as="targetPoint" />
          </mxGeometry>
        </mxCell>
        <mxCell id="tBojfq1C8Jnn5UzT84Zx-57" value="" style="shape=flexArrow;endArrow=classic;html=1;exitX=0.25;exitY=1;exitDx=0;exitDy=0;endWidth=12;endSize=5;entryX=0.167;entryY=0;entryDx=0;entryDy=0;entryPerimeter=0;fillColor=#0050ef;strokeColor=#001DBC;" edge="1" parent="tBojfq1C8Jnn5UzT84Zx-1">
          <mxGeometry width="50" height="50" relative="1" as="geometry">
            <mxPoint x="319.5" y="660" as="sourcePoint" />
            <mxPoint x="319.5799999999999" y="740" as="targetPoint" />
          </mxGeometry>
        </mxCell>
      </root>
    </mxGraphModel>
  </diagram>
</mxfile>
